<?xml version="1.0" encoding="utf-8"?>
<!-- Generator: Adobe Illustrator 27.2.0, SVG Export Plug-In . SVG Version: 6.00 Build 0)  -->
<svg version="1.1" xmlns="http://www.w3.org/2000/svg" xmlns:xlink="http://www.w3.org/1999/xlink" x="0px" y="0px"
	 viewBox="0 0 365.2 44.5" style="enable-background:new 0 0 365.2 44.5;" xml:space="preserve">
<style type="text/css">
	.st0{display:none;fill:#231F20;stroke:#FFFFFF;stroke-miterlimit:10;}
	.st1{fill:none;stroke:#FFFFFF;stroke-miterlimit:10;}
	.st2{fill:#FFFFFF;}
	.st3{fill:#FFCB05;}
	.st4{display:none;}
	.st5{display:inline;fill:#002D62;}
	.st6{display:inline;fill:#002D62;stroke:#002D62;stroke-width:5.000000e-02;stroke-miterlimit:10;}
	.st7{font-family:'Univers-Condensed';}
	.st8{font-size:9.6px;}
	.st9{display:inline;fill:#FFCF01;}
</style>
<g id="stroke">
	<rect x="-18.8" y="-39" class="st0" width="395.1" height="126.8"/>
	<line class="st1" x1="63.3" y1="5.6" x2="63.3" y2="39.9"/>
</g>
<g id="CoE">
	<path class="st2" d="M75.4,7.9L75.4,7.9l6,19.3H84l6.1-19.3h0.1v19.3h2.8V5.5h-4.6l-5.5,18.2h-0.1L77.3,5.5h-4.5v21.7h2.6V7.9z
		 M75.4,7.9"/>
	<rect x="96.8" y="5.5" class="st2" width="2.8" height="21.7"/>
	<path class="st2" d="M115.8,11.5c0.3-4.2-1.4-6.4-5.7-6.4c-4.3,0-7,1.7-7,7.9V19c0,8.4,4.1,8.6,6.8,8.6c1.4,0,6.2,0,6.1-6.8h-2.9
		c0,4.2-2.6,4.5-3.4,4.5c-2.1,0-3.9-0.6-3.9-5.9v-5.8c0-3.7,0.5-4.3,0.6-4.5c0.1-0.3,1-1.7,3.3-1.7c0.6,0,1.9,0.2,2.4,0.9
		c0.6,0.7,0.7,1.9,0.6,3.1H115.8z M115.8,11.5"/>
	<path class="st2" d="M121.7,27.2v-9.9h7.6v9.9h2.8V5.5h-2.8v9.4h-7.6V5.5h-2.8v21.7H121.7z M121.7,27.2"/>
	<rect x="136.1" y="5.5" class="st2" width="2.8" height="21.7"/>
	<path class="st2" d="M156,11.3c0.2-4.5-2-6.2-6.7-6.2c-4.6,0-6.8,2.8-6.8,7.1v7.1c0,6,2.2,8.4,6.8,8.4c2.8,0,4.9-0.7,6.6-1.6V15.4
		h-6.8v2.4h4v6.5c-0.6,0.4-1.9,1-3.9,1c-2.6,0-4-1.2-4-5.9V12c0-4.5,3.1-4.7,4-4.7c2.8,0,3.8,1.4,3.8,3.9H156z M156,11.3"/>
	<path class="st2" d="M157.7,27.2h2.8l1.6-5.2h8.4l1.6,5.2h3.1l-7.1-21.7h-3.5L157.7,27.2z M169.8,19.6h-6.9L166.2,8h0.1L169.8,19.6
		z M169.8,19.6"/>
	<path class="st2" d="M189.2,5.5V24h-0.1l-8.4-18.5h-3.9v21.7h2.5V8.4h0.1l8.5,18.8h3.8V5.5H189.2z M189.2,5.5"/>
	<path class="st2" d="M215,27.2v-2.4h-8.6v-7.5h7.8v-2.4h-7.8v-7h8.4V5.5h-11.2v21.7H215z M215,27.2"/>
	<path class="st2" d="M229.9,5.5V24h-0.1l-8.4-18.5h-3.9v21.7h2.5V8.4h0.1l8.5,18.8h3.8V5.5H229.9z M229.9,5.5"/>
	<path class="st2" d="M249.2,11.3c0.2-4.5-2-6.2-6.7-6.2c-4.6,0-6.8,2.8-6.8,7.1v7.1c0,6,2.2,8.4,6.8,8.4c2.8,0,4.9-0.7,6.6-1.6
		V15.4h-6.7v2.4h4v6.5c-0.6,0.4-1.9,1-3.9,1c-2.6,0-4-1.2-4-5.9V12c0-4.5,3.1-4.7,4-4.7c2.8,0,3.8,1.4,3.8,3.9H249.2z M249.2,11.3"
		/>
	<rect x="253.3" y="5.5" class="st2" width="2.8" height="21.7"/>
	<path class="st2" d="M272.5,5.5V24h-0.1L264,5.5h-3.9v21.7h2.5V8.4h0.1l8.5,18.8h3.8V5.5H272.5z M272.5,5.5"/>
	<path class="st2" d="M290,27.2v-2.4h-8.6v-7.5h7.8v-2.4h-7.8v-7h8.4V5.5h-11.2v21.7H290z M290,27.2"/>
	<path class="st2" d="M303.6,27.2v-2.4H295v-7.5h7.8v-2.4H295v-7h8.4V5.5h-11.2v21.7H303.6z M303.6,27.2"/>
	<path class="st2" d="M308.6,7.9h4.2c2.1,0,2.9,1.7,2.9,3.3c0,1.9-1,3.6-2.9,3.6h-4.1V7.9z M311.9,17.2c0.9,0,3.1,0.1,3.3,2.8
		c0.2,2.9,0.1,5.7,0.8,7.2h2.9c-0.4-1.4-0.7-4.7-0.7-5.7c-0.2-4.4-1-5.2-3.5-5.6v-0.1c2.5-0.4,4-2.4,4-4.9c0-2.7-1.4-5.4-5.2-5.4
		h-7.5v21.7h2.8v-10H311.9z M311.9,17.2"/>
	<rect x="321.6" y="5.5" class="st2" width="2.8" height="21.7"/>
	<path class="st2" d="M340.8,5.5V24h-0.1l-8.4-18.5h-3.9v21.7h2.5V8.4h0.1l8.5,18.8h3.8V5.5H340.8z M340.8,5.5"/>
	<path class="st2" d="M360.2,11.3c0.2-4.5-2-6.2-6.7-6.2c-4.6,0-6.8,2.8-6.8,7.1v7.1c0,6,2.2,8.4,6.8,8.4c2.8,0,4.9-0.7,6.6-1.6
		V15.4h-6.7v2.4h4v6.5c-0.6,0.4-1.9,1-3.9,1c-2.6,0-4-1.2-4-5.9V12c0-4.5,3.1-4.7,4-4.7c2.8,0,3.8,1.4,3.8,3.9H360.2z M360.2,11.3"
		/>
</g>
<g id="Common_Elements_to_CoE_Master">
	<path class="st3" d="M29.5,33.9l-9.9-13.6v9.9h3.9V40H5.2v-9.7h3.7V15.1H5.2V5.3h14.3L29.5,19l9.9-13.7h14.3v9.7H50v15.2h3.7V40
		H35.5v-9.7h3.9v-9.9L29.5,33.9L29.5,33.9z M29.5,33.9"/>
	<path class="st2" d="M210.5,40v-0.4c0.5,0,0.9-0.1,0.9-0.5c0-0.1,0-0.3-0.1-0.4l-0.2-0.7h-2.6l-0.2,0.6c0,0.2-0.1,0.3-0.1,0.5
		c0,0.5,0.5,0.6,1,0.6V40h-3v-0.4c0.8,0,1-0.2,1.3-1l2-5.4l-0.1-0.2c0.8-0.3,1.1-0.4,1.5-0.7c0.1,0.5,0.2,0.6,0.3,1.1l1.6,5
		c0.3,0.9,0.4,1.1,1.2,1.2V40H210.5L210.5,40z M209.9,34.1l-1.1,3h2.1L209.9,34.1L209.9,34.1z M184.3,38.3c-0.3,0.5-1.1,1.8-3.1,1.8
		c-2.2,0-3.6-1.6-3.6-3.8c0-2,1.2-3.9,3.7-3.9c1.3,0,2,0.5,2.4,0.9l0.5-0.5l0,2.2l-0.3,0.1c-0.1-0.4-0.3-0.8-0.8-1.3
		c-0.2-0.2-0.8-0.7-1.5-0.7c-1.3,0-2.4,1.1-2.4,3c0,1.6,0.9,3.1,2.6,3.1c1.3,0,1.8-0.7,2.1-1.3L184.3,38.3L184.3,38.3z M185.6,40
		v-0.4c0.8-0.1,0.8-0.2,0.8-1c0-0.3,0-0.5,0-0.8v-3.1c0-0.5,0-1,0-1.2c0-0.4-0.2-0.5-0.8-0.6v-0.4h3.1V33c-0.6,0.1-0.8,0.1-0.9,0.5
		c-0.1,0.2-0.1,0.8-0.1,1.2v1c0.6,0,1.1,0.1,1.7,0.1c0.6,0,1.1,0,1.7-0.1v-1.2c0-1.3,0-1.4-1-1.5v-0.4h3.2V33
		c-0.9,0.1-0.9,0.1-0.9,1.5v3.1c0,0.3,0,1.2,0,1.4c0,0.4,0.3,0.5,0.8,0.5V40h-3.2v-0.4c0.7-0.1,0.9-0.1,1-0.6c0-0.2,0-0.5,0-1v-1.3
		c-0.6,0-1.1-0.1-1.7-0.1c-0.6,0-1.1,0-1.8,0.1V38c0,1.5,0,1.5,1,1.6V40L185.6,40L185.6,40z M194.6,40v-0.4c0.7-0.1,0.9-0.2,0.9-0.9
		v-0.9v-3c0-1.5,0-1.6-0.9-1.7v-0.4h3.1V33c-0.9,0.1-0.9,0.1-0.9,1.7v3c0,0.3,0,1.1,0,1.3c0,0.4,0.3,0.6,0.8,0.6V40H194.6L194.6,40z
		 M173.7,40v-0.4c0.7-0.1,0.9-0.2,0.9-0.9v-0.9v-3c0-1.5,0-1.6-0.9-1.7v-0.4h3V33c-0.9,0.1-0.9,0.1-0.9,1.7v3c0,0.3,0,1.1,0,1.3
		c0.1,0.4,0.3,0.6,0.8,0.6V40H173.7L173.7,40z M169.1,40v-0.4c0.9-0.1,0.9-0.1,0.9-1.5v-3.7l-2.6,5.6h-0.6l-2.4-5.7l-0.1,4.3
		c0,0.7,0.1,0.9,0.9,0.9V40h-2.5v-0.4c0.6,0,0.8-0.1,0.9-0.6c0-0.2,0.1-0.8,0.1-1.2l0.1-3.1c0-0.2,0-0.6,0-0.8
		c0-0.7-0.1-0.8-0.8-0.8v-0.4h2.3l2.3,5.6l2.5-5.6h2.2v0.4c-0.9,0.1-0.9,0.1-0.9,1.3v3c0,0.5,0,1.1,0,1.5c0,0.5,0.2,0.6,0.8,0.7V40
		H169.1L169.1,40z M214.4,40v-0.4c0.6,0,0.8,0,0.9-0.5c0.1-0.5,0.1-4.8,0.1-5.6c-0.4-0.4-0.6-0.4-1.1-0.5v-0.4h2.2
		c0.6,0.9,0.7,1.1,1.8,2.4l2,2.5v-3.3c0-1.2,0-1.2-1.2-1.3v-0.4h2.9V33c-0.8,0-0.9,0.2-0.9,1.4l-0.1,5.7h-0.4l-0.7-0.8
		c-0.3-0.4-0.7-0.8-1-1.2l-2.9-3.6v3.8c0,1.2,0.1,1.2,1.2,1.3V40H214.4L214.4,40z M153.2,36.3c0,2.5-1.7,3.9-3.7,3.9
		c-2.1,0-3.8-1.5-3.8-3.9c0-2,1.3-3.8,3.7-3.8C151.7,32.5,153.2,34.1,153.2,36.3L153.2,36.3z M149.5,39.5c0.4,0,1-0.2,1.5-0.9
		c0.5-0.8,0.6-1.5,0.6-2.5c0-0.9-0.3-1.8-0.8-2.3c-0.2-0.2-0.7-0.6-1.3-0.6c-0.6,0-1.1,0.4-1.3,0.6c-0.5,0.6-0.8,1.4-0.8,2.4
		c0,1,0.1,1.7,0.7,2.5C148.5,39.3,149.1,39.5,149.5,39.5L149.5,39.5z M153.9,39.6V40h3v-0.4c-0.8-0.1-0.9-0.1-0.9-0.9l0-2.1h0.8
		c0.8,0,1.3,0.1,1.3,0.9h0.4V35h-0.4c0,0.8-0.3,0.9-1.2,0.9h-1v-2.5c0.3,0,0.4,0,0.9,0c1.4,0,1.9,0,2.1,1.1h0.4l-0.1-1.8h-5.4V33
		c0.5,0.1,0.8,0.1,0.8,0.4c0,0.2,0.1,1,0.1,1.3v2.6c0,0.2,0,1.1,0,1.3C154.8,39.4,154.7,39.5,153.9,39.6L153.9,39.6z M90.9,39.9
		v-0.4c0.7-0.1,0.9-0.2,0.9-0.9v-0.9v-3c0-1.5,0-1.6-0.9-1.7v-0.4h3V33C93,33.1,93,33.1,93,34.7v3c0,0.3,0,1.1,0,1.3
		c0,0.4,0.3,0.6,0.8,0.6v0.4H90.9L90.9,39.9z M123.2,39.9v-0.4c0.7-0.1,0.9-0.2,0.9-0.9v-0.9v-3c0-1.5,0-1.6-0.9-1.7v-0.4h3V33
		c-0.9,0.1-0.9,0.1-0.9,1.7v3c0,0.3,0,1.1,0,1.3c0,0.4,0.3,0.6,0.8,0.6v0.4H123.2L123.2,39.9z M81.9,39.9v-0.4c0.6,0,0.8,0,0.9-0.5
		c0.1-0.5,0.1-4.8,0.1-5.6c-0.4-0.4-0.6-0.4-1.1-0.5v-0.4h2.2c0.6,0.9,0.7,1.1,1.8,2.4l2.1,2.5v-3.3c0-1.2,0-1.2-1.2-1.3v-0.4h2.9
		V33c-0.8,0-0.9,0.2-0.9,1.4L88.7,40h-0.4l-0.7-0.8c-0.3-0.4-0.7-0.8-1-1.2l-2.9-3.6v3.8c0,1.2,0.1,1.2,1.2,1.3v0.4H81.9L81.9,39.9z
		 M117.1,37.6l0.4,0c0.4,1.2,1.1,1.8,2.2,1.8c0.8,0,1.5-0.3,1.5-1.1c0-0.8-0.8-1.2-1.2-1.3c-0.3-0.1-0.6-0.2-0.9-0.3
		c-0.6-0.2-1.7-0.7-1.7-2.1c0-1.4,1.1-2.1,2.3-2.1c0.5,0,1.1,0.1,1.7,0.5l0.4-0.3l0.2,2.2l-0.4,0.1c-0.1-0.5-0.2-0.7-0.5-1.1
		c-0.4-0.5-0.8-0.7-1.4-0.7c-0.8,0-1.2,0.4-1.2,1c0,0.9,0.9,1.2,1.7,1.4c0.4,0.1,0.8,0.3,1.1,0.4c0.6,0.3,1.1,1,1.1,1.9
		c0,1.3-1,2.3-2.6,2.3c-1,0-1.6-0.4-1.9-0.6l-0.6-0.4L117.1,37.6L117.1,37.6z M129.2,39.9v-0.3c0.7,0,0.9-0.3,0.9-0.8v-5.4h-0.9
		c-0.8,0-1.4,0-1.4,1.3h-0.4l0.1-2.1h6.7l0.1,2.1h-0.4c-0.1-1.3-0.6-1.3-1.4-1.3h-0.9v5.4c0,0.6,0.2,0.8,0.9,0.8v0.3H129.2
		L129.2,39.9z M76.3,32.6V33c-1,0.1-1,0.1-1,1.7v1.7c0,0.9,0,1.7,0.5,2.4c0.4,0.5,1,0.6,1.3,0.6c1,0,1.6-0.5,1.9-1.4
		c0.2-0.7,0.2-2,0.2-2.8c0-0.3,0-1.1,0-1.4c0-0.7-0.4-0.7-1-0.7v-0.4H81V33c-0.7,0-0.8,0.1-0.9,0.9c0,0.2-0.1,2.2-0.1,2.5
		c0,0.6-0.1,1.1-0.2,1.6c-0.5,2-2.4,2.1-2.9,2.1c-0.4,0-1.2-0.1-1.9-0.5c-1.1-0.7-1.1-1.8-1.1-3v-1.7c0-0.8,0-1.1,0-1.3
		C73.8,33.1,73.6,33,73,33v-0.4L76.3,32.6L76.3,32.6z M102.3,32.6V33c-0.7,0.1-0.8,0.3-1.4,1.8l-2.2,5.3h-0.4l-2-5.4
		c-0.5-1.4-0.6-1.6-1.3-1.7v-0.4h3.5V33c-0.6,0-1,0-1,0.5c0,0.2,0.1,0.4,0.3,1l1.3,3.7l1.5-3.9c0.1-0.3,0.2-0.6,0.2-0.8
		c0-0.5-0.5-0.6-1-0.6v-0.4H102.3L102.3,32.6z M137.1,39.9v-0.4c0.6-0.1,0.8-0.1,0.9-0.2c0.2-0.2,0.2-0.4,0.2-1.2v-1.3l-1.9-3
		c-0.5-0.8-0.5-0.8-1.2-0.8v-0.4h3.8V33c-0.8,0-1.1,0-1.1,0.4c0,0.2,0.1,0.4,0.3,0.7l1.1,1.8l1-1.8c0.2-0.4,0.3-0.6,0.3-0.8
		c0-0.4-0.3-0.4-0.8-0.4v-0.4h2.9V33c-0.7,0-1,0.2-1.8,1.6l-1.1,1.9V38c0,1.3,0,1.4,1.1,1.5v0.4L137.1,39.9L137.1,39.9z M108.6,39.9
		c0-0.5,0.1-1.4,0.2-1.9h-0.4c-0.3,1.3-1,1.2-2.1,1.2c-1,0-1.2-0.3-1.2-0.7v-2.1h0.8c0.9,0,1.2,0.1,1.2,0.9h0.4V35h-0.4
		c-0.1,0.7-0.2,0.9-1.2,0.9h-0.8v-2.6h0.9c1.2,0,1.7,0.1,1.9,1.1h0.3l0-1.7H103V33c0.5,0.1,0.8,0.1,0.8,0.4c0.1,0.2,0.1,1,0.1,1.3
		v2.6c0,0.2,0,1.1,0,1.3c0,0.8-0.1,0.9-0.9,0.9v0.4H108.6L108.6,39.9z M205.8,36.7v0.4c-0.7,0-0.7,0.2-0.7,1.6v0.6
		c-0.6,0.4-1.4,0.9-2.8,0.9c-2.5,0-3.7-1.9-3.7-3.8c0-2.3,1.6-3.9,3.6-3.9c1.2,0,2,0.5,2.6,0.8l0.4-0.4l0.1,2.3l-0.3,0.1
		c-0.2-0.4-0.4-0.9-0.9-1.5c-0.2-0.2-0.7-0.5-1.5-0.5c-1.3,0-2.3,1.1-2.3,3.2c0,1.7,0.8,3.1,2.3,3.1c0.8,0,1.2-0.6,1.3-0.6
		c0.1-0.2,0.2-0.4,0.1-0.7c0-0.9-0.2-1-1-1v-0.4H205.8L205.8,36.7z M112,36c0.2,0,0.5,0.1,0.7,0.1c0.8,0,1.5-0.7,1.5-1.2
		c0-0.8-0.4-1.6-1.7-1.6c-0.2,0-0.3,0-0.4,0V36L112,36z M112,37.6c0,1.7,0,1.9,0.9,1.9v0.4h-3.1v-0.4c0.8-0.1,0.9-0.2,0.9-1
		c0-0.3,0-0.6,0-0.9v-2.7c0-0.9,0-1.2,0-1.4c-0.1-0.4-0.3-0.5-0.9-0.5v-0.4l3.3,0c1.8,0,2.4,0.9,2.4,1.9c0,0.7-0.4,1.6-1.5,1.9
		l1.3,2.3c0.5,0.9,0.7,1.1,1.3,1.1v0.2c-0.2,0-0.3,0-0.5,0c-1.4,0-2-0.5-2.5-1.7l-0.4-0.9c-0.4-0.9-0.6-0.9-1.3-0.9V37.6L112,37.6z
		 M112,37.6"/>
</g>
<g id="Common_Elements_to_Departments" class="st4">
	<path class="st5" d="M180.2,40v-0.3c0.4,0,0.7-0.1,0.7-0.4c0-0.1,0-0.2-0.1-0.3l-0.2-0.6h-2.1l-0.2,0.5c0,0.1-0.1,0.2-0.1,0.4
		c0,0.4,0.4,0.4,0.8,0.5V40h-2.4v-0.3c0.6,0,0.8-0.2,1-0.8l1.6-4.4l-0.1-0.1c0.7-0.2,0.9-0.3,1.2-0.5c0.1,0.4,0.1,0.4,0.3,0.9l1.3,4
		c0.2,0.7,0.3,0.9,1,1V40H180.2L180.2,40z M179.6,35.2l-0.9,2.4h1.7L179.6,35.2L179.6,35.2z M159.2,38.6c-0.3,0.4-0.9,1.5-2.5,1.5
		c-1.8,0-2.9-1.3-2.9-3c0-1.6,1-3.2,3-3.2c1,0,1.6,0.4,1.9,0.7l0.4-0.4l0,1.8l-0.3,0.1c-0.1-0.3-0.2-0.6-0.6-1
		c-0.2-0.2-0.6-0.6-1.2-0.6c-1.1,0-1.9,0.9-1.9,2.4c0,1.3,0.7,2.5,2,2.5c1,0,1.4-0.6,1.7-1L159.2,38.6L159.2,38.6z M160.2,40v-0.3
		c0.7-0.1,0.7-0.2,0.7-0.8c0-0.2,0-0.4,0-0.6v-2.5c0-0.4,0-0.8,0-0.9c0-0.4-0.2-0.4-0.7-0.4v-0.3h2.5v0.3c-0.5,0.1-0.7,0.1-0.7,0.4
		c0,0.2-0.1,0.6-0.1,1v0.8c0.5,0,0.9,0,1.4,0c0.5,0,0.9,0,1.4,0v-1c0-1.1,0-1.1-0.8-1.2v-0.3h2.5v0.3c-0.7,0.1-0.7,0.1-0.7,1.2v2.5
		c0,0.2,0,1,0,1.1c0,0.3,0.2,0.4,0.6,0.4V40h-2.5v-0.3c0.6-0.1,0.7-0.1,0.8-0.5c0-0.2,0-0.4,0-0.8v-1.1c-0.5,0-0.9,0-1.3,0
		c-0.5,0-0.9,0-1.4,0v1.1c0,1.2,0,1.2,0.8,1.3V40L160.2,40L160.2,40z M167.4,40v-0.3c0.6-0.1,0.7-0.1,0.7-0.8v-0.8v-2.4
		c0-1.2,0-1.3-0.7-1.4v-0.3h2.4v0.3c-0.7,0.1-0.7,0.1-0.7,1.4v2.4c0,0.2,0,0.9,0,1c0,0.4,0.2,0.4,0.7,0.5V40H167.4L167.4,40z
		 M150.7,40v-0.3c0.6-0.1,0.7-0.1,0.7-0.8v-0.8v-2.4c0-1.2,0-1.3-0.7-1.4v-0.3h2.4v0.3c-0.7,0.1-0.7,0.1-0.7,1.4v2.4
		c0,0.2,0,0.9,0,1c0,0.4,0.2,0.4,0.7,0.5V40H150.7L150.7,40z M147,40v-0.3c0.7,0,0.7-0.1,0.7-1.2v-2.9l-2.1,4.5h-0.5l-1.9-4.6l0,3.5
		c0,0.6,0.1,0.7,0.7,0.7V40h-2v-0.3c0.5,0,0.7-0.1,0.7-0.5c0-0.2,0-0.7,0.1-1l0.1-2.5c0-0.2,0-0.5,0-0.7c0-0.6-0.1-0.6-0.6-0.6v-0.3
		h1.8l1.8,4.5l2-4.5h1.8v0.3c-0.7,0-0.7,0.1-0.7,1v2.4c0,0.4,0,0.9,0,1.2c0,0.4,0.2,0.5,0.7,0.6V40H147L147,40z M183.3,40v-0.3
		c0.5,0,0.7,0,0.7-0.4c0.1-0.4,0.1-3.9,0.1-4.5c-0.3-0.3-0.5-0.4-0.8-0.4v-0.3h1.8c0.5,0.7,0.6,0.9,1.5,1.9l1.6,2v-2.6
		c0-0.9,0-1-1-1v-0.3h2.3v0.3c-0.6,0-0.7,0.1-0.7,1.1l-0.1,4.5h-0.4l-0.5-0.7c-0.3-0.3-0.5-0.7-0.8-1l-2.3-2.9v3c0,1,0.1,1,1,1.1V40
		H183.3L183.3,40z M134.3,37c0,2-1.4,3.1-2.9,3.1c-1.7,0-3-1.2-3-3.1c0-1.6,1.1-3.1,3-3C133.1,34,134.3,35.2,134.3,37L134.3,37z
		 M131.4,39.6c0.3,0,0.8-0.2,1.2-0.7c0.4-0.6,0.5-1.2,0.5-2c0-0.8-0.2-1.4-0.7-1.9c-0.2-0.2-0.6-0.5-1-0.5c-0.5,0-0.9,0.3-1,0.5
		c-0.4,0.5-0.6,1.1-0.6,1.9c0,0.8,0.1,1.3,0.5,2C130.6,39.4,131,39.6,131.4,39.6L131.4,39.6z M134.9,39.6V40h2.4v-0.3
		c-0.6-0.1-0.7-0.1-0.7-0.8l0-1.7h0.6c0.7,0,1,0.1,1,0.7h0.3V36h-0.3c0,0.6-0.2,0.7-0.9,0.7h-0.8v-2c0.2,0,0.3,0,0.7,0
		c1.1,0,1.5,0,1.7,0.9h0.3l-0.1-1.4h-4.3v0.3c0.4,0,0.6,0.1,0.7,0.3c0,0.2,0,0.8,0,1.1v2.1c0,0.2,0,0.9,0,1
		C135.6,39.5,135.5,39.6,134.9,39.6L134.9,39.6z M84.4,39.9v-0.3c0.6-0.1,0.7-0.1,0.7-0.8v-0.8v-2.4c0-1.2,0-1.3-0.7-1.4V34h2.4v0.3
		c-0.7,0.1-0.7,0.1-0.7,1.4v2.4c0,0.2,0,0.9,0,1c0,0.4,0.2,0.4,0.7,0.5v0.3H84.4L84.4,39.9z M110.3,39.9v-0.3
		c0.6-0.1,0.7-0.1,0.7-0.8v-0.8v-2.4c0-1.2,0-1.3-0.7-1.4V34h2.4v0.3c-0.7,0.1-0.7,0.1-0.7,1.4v2.4c0,0.2,0,0.9,0,1
		c0,0.4,0.2,0.4,0.7,0.5v0.3H110.3L110.3,39.9z M77.3,39.9v-0.3c0.5,0,0.7,0,0.7-0.4c0.1-0.4,0.1-3.9,0.1-4.5
		c-0.3-0.3-0.5-0.4-0.9-0.4V34h1.8c0.5,0.7,0.6,0.9,1.5,1.9l1.6,2v-2.6c0-0.9,0-1-1-1V34h2.3v0.3c-0.6,0-0.7,0.1-0.7,1.1L82.7,40
		h-0.3l-0.5-0.7c-0.3-0.3-0.5-0.7-0.8-1l-2.3-2.9v3c0,0.9,0.1,1,1,1.1v0.3H77.3L77.3,39.9z M105.5,38.1l0.3,0c0.3,1,0.9,1.5,1.7,1.5
		c0.6,0,1.2-0.3,1.2-0.9c0-0.7-0.6-0.9-0.9-1c-0.2-0.1-0.5-0.2-0.7-0.3c-0.5-0.2-1.4-0.5-1.4-1.7c0-1.1,0.9-1.7,1.9-1.7
		c0.4,0,0.8,0.1,1.3,0.4l0.4-0.3l0.2,1.7l-0.3,0.1c-0.1-0.4-0.2-0.6-0.4-0.9c-0.3-0.4-0.7-0.5-1.1-0.5c-0.6,0-1,0.3-1,0.8
		c0,0.7,0.7,0.9,1.3,1.1c0.3,0.1,0.6,0.2,0.8,0.3c0.5,0.3,0.8,0.8,0.8,1.5c0,1-0.8,1.9-2.1,1.9c-0.8,0-1.3-0.3-1.5-0.5l-0.5-0.4
		L105.5,38.1L105.5,38.1z M115.1,39.9v-0.2c0.5,0,0.7-0.2,0.7-0.7v-4.3h-0.7c-0.7,0-1.1,0-1.2,1h-0.3l0-1.6h5.3l0.1,1.6h-0.3
		c-0.1-1-0.5-1-1.2-1h-0.7V39c0,0.5,0.1,0.7,0.7,0.7v0.2H115.1L115.1,39.9z M72.8,34v0.3C72,34.4,72,34.4,72,35.7v1.4
		c0,0.7,0,1.3,0.4,1.9c0.3,0.4,0.8,0.5,1.1,0.5c0.8,0,1.3-0.4,1.5-1.1c0.2-0.5,0.2-1.6,0.2-2.3c0-0.2,0-0.9,0-1.1
		c0-0.5-0.3-0.6-0.8-0.6V34h2.2v0.3c-0.6,0-0.7,0.1-0.7,0.7c0,0.1-0.1,1.8-0.1,2c0,0.4,0,0.9-0.1,1.3c-0.4,1.6-1.9,1.7-2.3,1.7
		c-0.3,0-1-0.1-1.5-0.4c-0.9-0.6-0.9-1.5-0.9-2.4v-1.3c0-0.6,0-0.9,0-1.1c-0.1-0.4-0.2-0.4-0.7-0.5V34L72.8,34L72.8,34z M93.6,34
		v0.3c-0.6,0.1-0.6,0.2-1.1,1.4L90.7,40h-0.3l-1.6-4.3c-0.4-1.1-0.4-1.2-1-1.3V34h2.8v0.3c-0.5,0-0.8,0-0.8,0.4c0,0.2,0,0.3,0.2,0.8
		l1,3l1.2-3.1c0.1-0.2,0.2-0.5,0.2-0.6c0-0.4-0.4-0.4-0.8-0.4V34H93.6L93.6,34z M121.4,39.9v-0.3c0.5,0,0.6-0.1,0.8-0.2
		c0.1-0.1,0.1-0.3,0.1-0.9v-1l-1.6-2.4c-0.4-0.6-0.4-0.6-1-0.7V34h3.1v0.3c-0.6,0-0.9,0-0.9,0.3c0,0.2,0.1,0.3,0.3,0.6l0.9,1.5
		l0.8-1.5c0.1-0.3,0.2-0.5,0.2-0.6c0-0.3-0.2-0.3-0.7-0.3V34h2.3v0.3c-0.6,0-0.8,0.2-1.4,1.3l-0.9,1.5v1.2c0,1.1,0,1.1,0.9,1.2v0.3
		L121.4,39.9L121.4,39.9z M98.6,39.9c0-0.4,0.1-1.1,0.1-1.5h-0.3c-0.2,1.1-0.8,1-1.6,1c-0.8,0-0.9-0.2-0.9-0.6v-1.6h0.6
		c0.7,0,0.9,0.1,0.9,0.7h0.3v-1.9h-0.3c-0.1,0.5-0.2,0.7-0.9,0.7h-0.6v-2.1h0.7c1,0,1.4,0.1,1.5,0.9h0.3l0-1.4h-4.2v0.3
		c0.4,0,0.6,0.1,0.7,0.3c0,0.2,0,0.8,0,1.1v2.1c0,0.2,0,0.9,0,1c0,0.6-0.1,0.7-0.7,0.8v0.3H98.6L98.6,39.9z M176.4,37.4v0.3
		c-0.5,0-0.5,0.2-0.6,1.3v0.4c-0.5,0.3-1.1,0.7-2.3,0.7c-2,0-3-1.5-3-3.1c0-1.9,1.3-3.1,2.9-3.1c1,0,1.6,0.4,2.1,0.7l0.3-0.3l0,1.8
		l-0.2,0c-0.1-0.4-0.3-0.8-0.7-1.2c-0.2-0.2-0.6-0.4-1.2-0.4c-1,0-1.9,0.9-1.9,2.6c0,1.3,0.7,2.5,1.8,2.5c0.7,0,1-0.5,1-0.5
		c0.1-0.2,0.1-0.3,0.1-0.6c0-0.8-0.1-0.8-0.8-0.8v-0.3H176.4L176.4,37.4z M101.4,36.8c0.2,0,0.4,0.1,0.5,0.1c0.7,0,1.2-0.5,1.2-1
		c0-0.7-0.3-1.3-1.4-1.3c-0.2,0-0.2,0-0.4,0V36.8L101.4,36.8z M101.4,38c0,1.3,0,1.5,0.7,1.5v0.3h-2.5v-0.3c0.6-0.1,0.7-0.2,0.7-0.8
		c0-0.2,0-0.5,0-0.8v-2.1c0-0.7,0-1,0-1.1c0-0.3-0.2-0.4-0.7-0.4V34l2.7,0c1.4,0,1.9,0.7,1.9,1.5c0,0.6-0.4,1.3-1.2,1.5l1,1.8
		c0.4,0.7,0.6,0.8,1.1,0.9V40c-0.1,0-0.3,0-0.4,0c-1.1,0-1.6-0.4-2-1.4l-0.3-0.7c-0.3-0.7-0.5-0.7-1-0.7V38L101.4,38z M101.4,38"/>
	<path class="st5" d="M73.9,14.6"/>
	<path class="st5" d="M149.4,24"/>
	<path class="st5" d="M165,12.7"/>
	<path class="st5" d="M183.2,30"/>
	<text transform="matrix(1 0 0 1 69.5557 12.6107)" class="st6 st7 st8">COLLEGE OF ENGINEERING</text>
	<path class="st9" d="M29.2,33.9l-9.8-13.4v9.8h3.9v9.7H5.2v-9.7h3.7v-15H5.2V5.5h14.2l9.8,13.5L39,5.5h14.2v9.7h-3.7v15h3.7v9.7
		H35.1v-9.7H39v-9.8L29.2,33.9L29.2,33.9z M29.2,33.9"/>
</g>
</svg>
