<?xml version="1.0" encoding="UTF-8" standalone="no"?>
<svg
   xmlns:dc="http://purl.org/dc/elements/1.1/"
   xmlns:cc="http://creativecommons.org/ns#"
   xmlns:rdf="http://www.w3.org/1999/02/22-rdf-syntax-ns#"
   xmlns:svg="http://www.w3.org/2000/svg"
   xmlns="http://www.w3.org/2000/svg"
   viewBox="0 0 277.33334 36"
   height="36"
   width="277.33334"
   xml:space="preserve"
   id="svg2"
   version="1.1"><metadata
     id="metadata8"><rdf:RDF><cc:Work
         rdf:about=""><dc:format>image/svg+xml</dc:format><dc:type
           rdf:resource="http://purl.org/dc/dcmitype/StillImage" /></cc:Work></rdf:RDF></metadata><defs
     id="defs6" /><g
     transform="matrix(1.3333333,0,0,-1.3333333,0,36)"
     id="g10"><g
       transform="scale(0.1)"
       id="g12"><path
         id="path14"
         style="fill:#ffffff;fill-opacity:1;fill-rule:nonzero;stroke:none"
         d="m 434.609,11.2109 h 5.62109 v 258.789 H 434.609 Z" /><path
         id="path16"
         style="fill:#ffffff;fill-opacity:1;fill-rule:nonzero;stroke:none"
         d="m 1404.22,10.9414 v 2.5781 c 3.28,0.1914 5.78,0.461 5.78,3.1211 0,0.9375 -0.31,1.9492 -0.55,2.8477 l -1.44,4.8515 h -16.84 l -1.48,-4.1093 c -0.35,-1.0508 -0.63,-1.9922 -0.63,-3 0,-3.3594 3.6,-3.6016 6.49,-3.711 v -2.5781 h -19.69 v 2.5781 c 5,0.1914 6.64,1.211 8.48,6.211 l 12.93,35.5 -0.75,1.1797 c 5.55,1.789 7.11,2.6484 9.5,4.4101 0.93,-3.2422 1.09,-3.6719 2.14,-7.0703 l 10.59,-32.5 c 1.87,-5.7812 2.77,-7.2305 7.85,-7.7305 v -2.5781 z m -4.3,38.3984 -7.03,-19.8515 h 13.75 z m -166.6,-27.7812 c -2.11,-3.4375 -7.19,-11.91016 -20.39,-11.91016 -14.41,0 -23.75,10.62106 -23.75,24.57036 0,12.9726 7.93,25.7031 24.06,25.7031 8.52,0 13.01,-3.5938 15.82,-5.7422 l 3.24,2.9687 0.28,-14.5273 -2.15,-0.3906 c -0.82,2.7695 -2.03,5.039 -5.16,8.3906 -1.44,1.5703 -5,4.6875 -10,4.6875 -8.63,0 -15.47,-7.0273 -15.47,-19.4883 0,-10.4687 5.63,-20.3515 16.68,-20.3515 8.36,0 11.53,4.6523 14.03,8.2421 z m 8.09,-10.6172 v 2.5781 c 5.43,0.461 5.47,1.6407 5.47,6.211 0.07,1.7187 0.07,3.3906 0.07,5.1093 v 20.0391 c 0,3.1328 0,6.25 -0.19,7.7422 -0.28,2.8477 -1.64,3.2383 -5.35,3.5898 v 2.5782 h 20.5 v -2.5782 c -4.02,-0.4296 -5.5,-0.5507 -5.97,-3.1992 -0.35,-1.5312 -0.43,-5.0429 -0.43,-7.9336 v -6.5976 c 4.14,-0.1992 7.03,-0.3203 11.05,-0.3203 4.03,0 7.23,0.1211 11.33,0.3203 v 8.039 c -0.08,8.711 -0.16,9.0703 -6.64,9.6914 v 2.5782 h 20.74 v -2.5782 c -5.54,-0.6992 -5.54,-0.7421 -5.54,-9.8398 V 26.1719 c 0,-1.8711 0.03,-7.9336 0.27,-9.3321 0.31,-2.5 1.76,-2.9687 5.27,-3.3203 v -2.5781 h -20.74 v 2.5781 c 4.8,0.5 6.09,0.6602 6.52,3.9805 0.12,1.3711 0.12,3.1602 0.12,6.6406 v 8.7891 c -3.79,0.1211 -6.95,0.3516 -10.86,0.3516 -4.14,0 -7.38,-0.1602 -11.48,-0.3516 v -8.7891 c 0.04,-9.9609 0.19,-9.9609 6.36,-10.6211 v -2.5781 z m 59.06,0 v 2.5781 c 4.69,0.6211 5.62,1.1289 5.66,6.1289 v 25.5118 c -0.04,9.9609 -0.04,10.2304 -5.66,11.0507 v 2.5782 h 19.88 v -2.5782 c -5.62,-0.5507 -5.62,-0.8203 -5.62,-11.0507 V 25.8203 c 0,-1.6797 0.07,-7.0312 0.19,-8.4414 0.31,-2.9297 1.68,-3.5898 5.43,-3.8984 v -2.5391 z m -136.33,0 v 2.5781 c 4.69,0.6211 5.63,1.1289 5.66,6.1289 v 25.5118 c -0.03,9.9609 -0.03,10.2304 -5.66,11.0507 v 2.5782 h 19.84 v -2.5782 c -5.62,-0.5507 -5.62,-0.8203 -5.62,-11.0507 V 25.8203 c 0,-1.6797 0.08,-7.0312 0.23,-8.4414 0.32,-2.9297 1.68,-3.5898 5.39,-3.8984 v -2.5391 z m -30.16,0 v 2.5781 c 6.02,0.3907 6.02,0.6602 6.1,9.5313 v 24.0586 l -16.72,-36.8008 h -4.22 l -15.39,37.3125 -0.35,-28.1328 c 0,-4.6875 0.55,-5.5781 5.62,-5.9688 v -2.5781 h -16.6 v 2.5781 c 3.87,0.1914 5.39,0.7422 5.63,3.9805 0.15,1.2891 0.35,5.3086 0.43,7.9297 l 0.66,20.082 c 0.08,1.5586 0.08,3.8672 0.08,5.5391 0,4.7305 -0.94,5.0781 -5.24,5.1601 v 2.5782 h 15.04 l 14.93,-36.3282 16.4,36.3282 h 14.57 v -2.8477 c -5.7,-0.3203 -5.74,-0.9414 -5.7,-8.4023 V 27.8086 c 0,-3.2773 0.08,-7.2969 0.27,-9.7578 0.28,-3.5195 1.64,-4.1797 5.43,-4.5313 v -2.5781 z m 295.71,0 v 2.5781 c 3.94,0.1914 5.43,0.2696 5.97,2.961 0.67,3.1679 0.9,31.5703 0.94,36.5312 -2.65,2.4571 -3.71,2.9297 -6.91,3.1992 v 2.5782 h 14.37 c 4.03,-5.6993 4.89,-6.9883 11.96,-15.7383 l 13.36,-16.5313 v 21.4102 c -0.08,7.582 -0.28,8.0117 -7.9,8.2812 v 2.5782 h 18.87 v -2.5782 c -5.23,-0.082 -5.7,-1.1718 -5.74,-8.9414 l -0.7,-36.9609 h -2.86 l -4.29,5.3516 c -2.11,2.6992 -4.34,5.4296 -6.49,8.0898 l -18.9,23.3203 V 22.2695 c 0,-7.7812 0.51,-8.0507 7.85,-8.789 v -2.5391 z m -399.22,23.9805 c 0,-16.5625 -11.29,-25.23049 -23.95,-25.23049 -13.942,0 -24.801,10.03909 -24.801,25.30859 0,13.0508 8.75,24.8789 24.141,24.8008 14.49,-0.0703 24.61,-10.3516 24.61,-24.8789 z m -23.91,-20.7813 c 2.7,0.0391 6.53,1.4102 9.49,5.8985 3.36,5.1914 4.07,9.9609 3.87,16.2109 -0.19,6.1289 -1.91,11.4492 -5.43,15.1992 -1.52,1.6406 -4.57,4.0625 -8.55,3.9414 -3.99,0 -6.96,-2.539 -8.44,-4.2187 -3.398,-3.8321 -4.961,-9.2227 -4.961,-15.3906 0,-6.211 0.82,-10.9805 4.371,-16.0508 3.09,-4.3789 6.92,-5.5899 9.65,-5.5899 z m 28.71,-0.5508 v -2.6484 h 19.81 v 2.6484 c -4.92,0.4297 -5.55,0.9415 -5.7,6.1407 l 0.03,13.6679 h 5.32 c 5.35,0 8.2,-0.5078 8.51,-5.8593 h 2.35 v 15.7812 h -2.35 c -0.23,-5.1601 -1.68,-5.6601 -7.5,-5.6601 h -6.33 v 16.5586 c 1.72,0.2304 2.66,0.2695 5.71,0.2695 9.37,0 12.38,0.043 13.67,-7.418 h 2.34 l -0.78,11.7188 h -35.08 v -2.5782 c 3.44,-0.3515 4.93,-0.5507 5.43,-2.7695 0.32,-1.4922 0.39,-6.7617 0.39,-8.6719 V 27.9688 c 0,-1.2891 -0.07,-7.0704 -0.15,-8.2383 -0.12,-5.1992 -0.71,-5.711 -5.67,-6.1407 z M 623.91,11.25 v 2.6211 c 4.68,0.5781 5.621,1.1289 5.699,6.168 v 25.4726 c -0.078,9.9571 -0.078,10.2266 -5.699,11.0078 v 2.6211 h 19.879 V 56.5195 C 638.16,55.9805 638.16,55.7383 638.16,45.5117 V 26.1719 c 0,-1.6836 0.078,-7.0703 0.199,-8.4727 0.352,-2.8984 1.719,-3.5586 5.43,-3.8281 V 11.25 Z m 210.86,0 v 2.6211 c 4.64,0.5781 5.621,1.1289 5.66,6.168 v 25.4726 c -0.039,9.9571 -0.039,10.2266 -5.66,11.0078 v 2.6211 h 19.839 V 56.5195 C 848.98,55.9805 848.98,55.7383 848.98,45.5117 V 26.1719 c 0,-1.6836 0.04,-7.0703 0.2,-8.4727 0.308,-2.8984 1.679,-3.5586 5.429,-3.8281 V 11.25 Z m -269.11,0 v 2.6211 c 3.91,0.1484 5.391,0.2695 5.981,2.9687 0.66,3.1993 0.859,31.5586 0.937,36.5196 -2.656,2.4219 -3.75,2.9297 -6.918,3.1601 v 2.6211 h 14.379 c 3.981,-5.6992 4.883,-6.9922 11.91,-15.7422 l 13.36,-16.5195 v 21.4024 c -0.079,7.5781 -0.27,7.9687 -7.848,8.2382 v 2.6211 h 18.828 v -2.6211 c -5.238,-0.039 -5.699,-1.1289 -5.738,-8.8984 l -0.711,-37 h -2.809 l -4.301,5.3984 c -2.179,2.6914 -4.332,5.4297 -6.519,8.0391 L 577.34,47.4219 V 22.5781 c 0,-7.7383 0.512,-8.0078 7.859,-8.75 V 11.25 Z m 229.539,14.9219 2.461,0.2773 c 2.61,-7.8203 7.031,-12 14.219,-12 5.07,0 9.57,2.1524 9.57,7.3125 0,5.4688 -5.238,7.5781 -7.539,8.5469 -1.922,0.7422 -3.949,1.3711 -5.82,2.1133 -3.949,1.4062 -11.328,4.457 -11.328,13.75 0,8.9492 7.027,13.9883 15.226,13.9883 3.211,0 6.922,-0.711 11.024,-3.2813 l 2.886,2.0703 1.563,-14.2187 -2.383,-0.4297 c -0.816,3.0781 -1.449,4.5273 -3.316,7.0273 -2.313,3.0117 -5.551,4.4102 -9.34,4.4102 -5.082,0 -8.043,-2.457 -8.043,-6.25 0,-5.6992 5.621,-7.6094 10.973,-9.3281 2.699,-0.8985 4.918,-1.6797 6.878,-2.7813 3.79,-2.2578 6.911,-6.4375 6.911,-12.2187 0,-8.2813 -6.762,-15.1211 -16.84,-15.1211 -6.52,0 -10.539,2.582 -12.422,3.789 l -3.981,2.8907 z M 873.871,11.25 v 2.0313 c 4.41,0.0781 5.617,1.7187 5.617,5.4687 v 35.2695 h -5.968 c -5.399,0 -8.989,0.2422 -9.418,-8.3203 h -2.461 l 0.39,13.4024 h 43.481 l 0.386,-13.4024 h -2.539 c -0.39,8.5625 -3.98,8.3203 -9.379,8.3203 h -5.968 V 18.75 c 0,-3.7891 1.207,-5.3906 5.617,-5.4687 V 11.25 Z M 529.02,59.1406 v -2.6211 c -6.36,-0.4687 -6.36,-0.6601 -6.399,-10.8203 v -11.25 c 0,-5.8594 0.109,-10.8594 3.199,-15.3476 2.418,-3.5508 6.602,-4.0235 8.668,-4.0235 6.883,0 10.633,3.5508 12.274,9.2227 1.359,4.4492 1.398,12.8476 1.398,18.4297 0,1.7578 0,7.4687 -0.039,8.9883 -0.312,4.371 -2.531,4.4921 -6.793,4.8007 v 2.6211 h 18.242 v -2.6211 c -4.492,0.1211 -5.429,-0.8984 -5.699,-5.6601 -0.082,-1.1289 -0.633,-14.4492 -0.672,-16.4805 -0.148,-3.6406 -0.347,-7.2695 -1.168,-10.707 -3.242,-12.8906 -15.781,-13.5508 -19.101,-13.5508 -2.66,0 -8.09,0.3906 -12.539,3.3984 -7.11,4.8008 -7.192,11.9922 -7.192,19.6797 v 10.8594 c -0.078,5.1602 -0.078,7.4609 -0.187,8.6719 -0.434,3.0078 -1.922,3.5976 -5.512,3.789 v 2.6211 z m 169.691,0 v -2.6211 c -4.609,-0.6601 -5.231,-1.9492 -9.18,-11.4414 l -14.57,-34.7695 h -2.582 l -13.078,35.3125 c -3.25,9.1094 -3.68,10.1602 -8.481,10.8984 v 2.6211 h 22.731 v -2.6211 c -3.903,-0.1093 -6.403,-0.2304 -6.403,-3.039 0,-1.3321 0.352,-2.5 1.641,-6.4922 l 8.359,-24.3281 9.731,25.1484 c 0.621,1.6797 1.402,3.8711 1.402,5.082 0,3.4375 -3.359,3.5899 -6.371,3.6289 v 2.6211 z M 925.551,11.25 v 2.6211 c 3.75,0.3906 5.187,0.5078 6.129,1.4805 1.09,1.0586 1.09,2.2695 1.129,7.5 V 31.25 l -12.688,19.7305 c -3.48,5.1484 -3.562,5.3086 -8.133,5.539 v 2.6602 h 24.891 v -2.6602 c -5,-0.1093 -7.27,-0.2304 -7.27,-2.539 0,-1.3203 0.903,-2.8086 2.11,-4.8399 l 7.34,-11.9922 6.761,11.9532 c 1.211,2.3789 1.91,3.75 1.91,4.8476 0,2.3008 -1.992,2.3789 -5.308,2.5703 v 2.6602 h 18.668 v -2.6602 c -4.801,-0.1093 -6.211,-1.5586 -11.68,-10.4687 l -7.461,-12.5 v -9.961 c 0,-8.6679 0.039,-9.371 7.153,-9.7617 V 11.25 Z m -185.86,0 c 0,3.4805 0.579,9.1406 1.008,12.4219 h -2.301 c -1.636,-8.5508 -6.449,-8.1211 -13.359,-8.1211 -6.367,0 -7.66,1.6797 -7.66,4.8008 v 13.3593 h 5.16 c 5.902,0 7.582,-0.5117 7.582,-5.8593 h 2.301 v 15.8203 h -2.301 c -0.473,-4.2617 -1.332,-5.7031 -7.5,-5.7031 h -5.242 v 16.871 h 5.902 c 8.129,0 11.059,-0.5781 12.149,-7.0703 h 2.148 l -0.277,11.3711 h -34.063 v -2.582 c 3.442,-0.3477 4.922,-0.5391 5.391,-2.8086 0.351,-1.4805 0.391,-6.7187 0.391,-8.6289 V 28.2813 c 0,-1.293 -0.04,-7.0313 -0.071,-8.2032 -0.16,-5.1992 -0.789,-5.6992 -5.711,-6.1679 V 11.25 Z m 633.749,20.8203 v -2.582 c -4.34,-0.2266 -4.34,-1.4766 -4.46,-10.5781 v -3.6016 c -3.71,-2.2969 -9.02,-5.61719 -18.43,-5.61719 -16.45,0 -24.34,12.49999 -24.34,25.03909 0,15.3086 10.39,25.2695 23.36,25.2695 8.2,0 12.89,-3.0508 16.8,-5.4297 l 2.5,2.8516 0.35,-14.961 -1.92,-0.3515 c -1.01,2.8125 -2.46,6.0898 -6.05,9.7304 -1.6,1.5586 -4.65,3.5508 -9.49,3.5508 -8.36,0 -15.28,-7.0312 -15.28,-20.7812 0,-11.0196 5.43,-20.4297 14.73,-20.4297 5.35,0 8.05,3.7109 8.32,4.0195 0.86,1.25 1.06,2.4219 0.98,4.5313 -0.24,6.0976 -1.06,6.2187 -6.37,6.7578 v 2.582 z m -611.53,4.8789 c 1.289,-0.2695 3.129,-0.5 4.5,-0.5 5.43,0 9.531,4.25 9.719,8.0821 0.32,5.5468 -2.5,10.3476 -11.289,10.3476 -1.25,0 -1.988,-0.0391 -2.93,-0.2305 z m 0,-10.4297 c 0.078,-10.9687 0.078,-12.5 5.82,-12.6093 V 11.25 h -20 v 2.6602 c 5.161,0.4296 5.711,1.2109 5.79,6.3593 0.07,2 0.07,4.2188 0.07,6.1797 V 43.75 c 0,5.7383 -0.07,7.7695 -0.27,9.3398 -0.351,2.6485 -1.64,3.1211 -5.55,3.4688 v 2.582 l 21.679,-0.082 c 11.801,0 15.512,-5.6172 15.512,-12.2578 0,-4.6524 -2.852,-10.6289 -9.449,-12.6602 l 8.508,-14.7304 c 3.05,-5.6602 4.691,-6.9493 8.558,-7.5 v -1.6016 c -1.058,-0.0781 -2.066,-0.1094 -3.129,-0.1094 -9.019,0 -12.769,3.0821 -16.558,11.1719 l -2.661,5.6172 c -2.851,6.0234 -3.781,5.6328 -8.32,5.7422 z" /><path
         id="path18"
         style="fill:#ffcb05;fill-opacity:1;fill-rule:nonzero;stroke:none"
         d="M 180.941,56.3711 106.84,157.66 V 83.9805 h 29.488 V 11.2109 H 0 V 83.9805 H 27.6211 V 197.23 H 0 V 270 H 107.07 L 180.941,167.969 254.84,270 H 361.879 V 197.23 H 334.262 V 83.9805 h 27.617 V 11.2109 H 225.59 v 72.7696 h 29.449 V 157.66 Z" /><path
         id="path20"
         style="fill:#ffffff;fill-opacity:1;fill-rule:nonzero;stroke:none"
         d="m 551.949,220.039 v 44.492 L 537.5,220.039 h -5 l -14.648,44.492 v -44.492 h -4.102 v 48.75 h 7.07 l 14.34,-43.828 14.02,43.828 h 6.871 v -48.75 z" /><path
         id="path22"
         style="fill:#ffffff;fill-opacity:1;fill-rule:nonzero;stroke:none"
         d="m 566.719,220.039 h 4.33984 v 48.75 H 566.719 Z" /><path
         id="path24"
         style="fill:#ffffff;fill-opacity:1;fill-rule:nonzero;stroke:none"
         d="m 607.379,233.75 c 0,-2.148 -0.27,-4.141 -0.738,-5.941 -0.512,-1.789 -1.332,-3.321 -2.5,-4.61 -1.172,-1.25 -2.621,-2.258 -4.262,-3 -1.68,-0.789 -3.707,-1.14 -6.09,-1.097 -3.398,0 -6.059,0.668 -7.891,1.949 -1.839,1.328 -3.199,3.051 -4.058,5.199 -0.86,2.191 -1.328,4.531 -1.488,7.109 -0.122,2.539 -0.192,5.192 -0.192,7.891 0,2.93 0.039,5.551 0.07,7.809 0.04,2.312 0.161,4.421 0.36,6.293 0.66,9.57 5.269,14.378 13.82,14.378 3.949,0 7.039,-1.019 9.262,-3.089 2.187,-2.071 3.277,-5.43 3.277,-10.082 v -0.938 H 602.5 c 0,0.238 0,0.43 0,0.59 0,0.199 0.039,0.348 0.078,0.508 0,6.25 -2.738,9.371 -8.168,9.371 -2.379,0 -4.25,-0.578 -5.539,-1.68 -1.293,-1.129 -2.269,-2.531 -2.891,-4.211 -0.628,-1.648 -1.019,-3.48 -1.101,-5.508 -0.078,-2.031 -0.149,-3.91 -0.188,-5.671 v -13.321 c 0,-3.98 0.821,-7.148 2.418,-9.449 1.641,-2.27 3.911,-3.441 6.871,-3.441 1.758,0 3.211,0.351 4.34,1.019 1.129,0.66 2.032,1.563 2.7,2.621 0.66,1.09 1.128,2.301 1.359,3.59 0.199,1.289 0.351,2.621 0.391,3.981 h 4.609 z" /><path
         id="path26"
         style="fill:#ffffff;fill-opacity:1;fill-rule:nonzero;stroke:none"
         d="m 638.48,220.039 v 23.242 H 619.301 V 220.039 H 615 v 48.75 h 4.301 V 246.91 h 19.179 v 21.879 h 4.329 v -48.75 z" /><path
         id="path28"
         style="fill:#ffffff;fill-opacity:1;fill-rule:nonzero;stroke:none"
         d="m 653.012,220.039 h 4.29688 v 48.75 H 653.012 Z" /><path
         id="path30"
         style="fill:#ffffff;fill-opacity:1;fill-rule:nonzero;stroke:none"
         d="m 691.02,256.289 v 0.742 c 0,2.891 -0.79,5.117 -2.309,6.68 -1.52,1.598 -3.711,2.379 -6.481,2.461 -2,0 -3.679,-0.313 -5.082,-0.902 -1.367,-0.579 -2.539,-1.559 -3.437,-2.969 -0.902,-1.403 -1.563,-3.121 -1.949,-5.192 -0.391,-2.07 -0.59,-4.687 -0.59,-7.808 v -6.762 c 0,-3.199 0.078,-6.059 0.308,-8.519 0.239,-2.461 0.79,-4.532 1.641,-6.211 0.859,-1.68 2,-2.93 3.438,-3.789 1.453,-0.86 3.441,-1.29 6.019,-1.29 3.043,0 5.742,0.551 8.082,1.571 v 17.687 h -9.922 v 3.524 h 14.184 V 221.25 c -1.91,-0.629 -3.942,-1.129 -6.133,-1.52 -2.23,-0.429 -4.34,-0.628 -6.289,-0.628 -3.75,0 -6.68,0.589 -8.789,1.757 -2.109,1.172 -3.711,2.77 -4.801,4.801 -1.058,2.039 -1.68,4.461 -1.879,7.27 -0.191,2.851 -0.312,5.859 -0.39,8.98 v 5.078 c 0,2.852 0.121,5.672 0.308,8.442 0.242,2.73 0.86,5.16 1.84,7.269 0.981,2.141 2.539,3.821 4.652,5.153 2.11,1.289 5.039,1.949 8.707,1.949 2.5,0 4.571,-0.313 6.211,-0.891 1.68,-0.59 3.051,-1.488 4.141,-2.699 1.051,-1.211 1.801,-2.621 2.23,-4.262 0.391,-1.597 0.622,-3.469 0.661,-5.66 z" /><path
         id="path32"
         style="fill:#ffffff;fill-opacity:1;fill-rule:nonzero;stroke:none"
         d="m 732.23,220.039 -3.91,12.852 h -19.101 l -3.828,-12.852 h -4.34 l 15.398,48.75 h 5.11 l 15.203,-48.75 z m -13.441,44.02 -8.277,-27.539 h 16.679 z" /><path
         id="path34"
         style="fill:#ffffff;fill-opacity:1;fill-rule:nonzero;stroke:none"
         d="m 767.07,220.039 -19.961,43.871 v -43.871 h -4.257 v 48.75 h 6.597 l 20.121,-43.867 v 43.867 h 4.258 v -48.75 z" /><path
         id="path36"
         style="fill:#ffffff;fill-opacity:1;fill-rule:nonzero;stroke:none"
         d="m 798.98,220.039 v 48.75 h 22.071 V 265.16 H 803.32 v -18.25 h 16.95 v -3.629 h -16.95 v -19.57 h 18.2 v -3.672 z" /><path
         id="path38"
         style="fill:#ffffff;fill-opacity:1;fill-rule:nonzero;stroke:none"
         d="m 853.281,220.039 -20,43.871 v -43.871 h -4.261 v 48.75 h 6.64 l 20.121,-43.867 v 43.867 H 860 v -48.75 z" /><path
         id="path40"
         style="fill:#ffffff;fill-opacity:1;fill-rule:nonzero;stroke:none"
         d="m 893.52,256.289 v 0.742 c 0,2.891 -0.79,5.117 -2.309,6.68 -1.52,1.598 -3.711,2.379 -6.481,2.461 -2,0 -3.679,-0.313 -5.082,-0.902 -1.367,-0.579 -2.539,-1.559 -3.437,-2.969 -0.902,-1.403 -1.563,-3.121 -1.949,-5.192 -0.391,-2.07 -0.59,-4.687 -0.59,-7.808 v -6.762 c 0,-3.199 0.078,-6.059 0.308,-8.519 0.239,-2.461 0.79,-4.532 1.641,-6.211 0.859,-1.68 2,-2.93 3.438,-3.789 1.453,-0.86 3.441,-1.29 6.019,-1.29 3.043,0 5.742,0.551 8.082,1.571 v 17.687 h -9.922 v 3.524 h 14.184 V 221.25 c -1.91,-0.629 -3.942,-1.129 -6.133,-1.52 -2.23,-0.429 -4.34,-0.628 -6.289,-0.628 -3.75,0 -6.68,0.589 -8.789,1.757 -2.109,1.172 -3.711,2.77 -4.801,4.801 -1.058,2.039 -1.68,4.461 -1.879,7.27 -0.191,2.851 -0.312,5.859 -0.39,8.98 v 5.078 c 0,2.852 0.121,5.672 0.308,8.442 0.242,2.73 0.86,5.16 1.84,7.269 0.981,2.141 2.539,3.821 4.652,5.153 2.11,1.289 5.039,1.949 8.707,1.949 2.5,0 4.571,-0.313 6.211,-0.891 1.68,-0.59 3.051,-1.488 4.141,-2.699 1.051,-1.211 1.801,-2.621 2.23,-4.262 0.391,-1.597 0.622,-3.469 0.661,-5.66 z" /><path
         id="path42"
         style="fill:#ffffff;fill-opacity:1;fill-rule:nonzero;stroke:none"
         d="m 908.012,220.039 h 4.33984 v 48.75 H 908.012 Z" /><path
         id="path44"
         style="fill:#ffffff;fill-opacity:1;fill-rule:nonzero;stroke:none"
         d="m 947.031,220.039 -20,43.871 v -43.871 h -4.261 v 48.75 h 6.64 l 20.121,-43.867 v 43.867 h 4.258 v -48.75 z" /><path
         id="path46"
         style="fill:#ffffff;fill-opacity:1;fill-rule:nonzero;stroke:none"
         d="m 963.98,220.039 v 48.75 h 22.071 v -3.629 h -17.77 v -18.25 h 16.949 v -3.629 h -16.949 v -19.57 h 18.239 v -3.672 z" /><path
         id="path48"
         style="fill:#ffffff;fill-opacity:1;fill-rule:nonzero;stroke:none"
         d="m 993.949,220.039 v 48.75 h 22.071 v -3.629 h -17.782 v -18.25 h 16.962 v -3.629 h -16.962 v -19.57 h 18.242 v -3.672 z" /><path
         id="path50"
         style="fill:#ffffff;fill-opacity:1;fill-rule:nonzero;stroke:none"
         d="m 1048.83,257.23 c 0,-1.839 -0.16,-3.441 -0.43,-4.769 -0.28,-1.371 -0.7,-2.5 -1.29,-3.402 -0.59,-0.899 -1.37,-1.637 -2.42,-2.258 -1.02,-0.672 -2.23,-1.102 -3.64,-1.371 2.47,-0.309 4.22,-1.09 5.28,-2.34 1.01,-1.289 1.6,-3.32 1.68,-6.102 l 0.27,-11.207 0.47,-5.742 h -4.37 c -0.12,0.621 -0.16,1.41 -0.24,2.301 -0.04,0.898 -0.08,1.68 -0.19,2.308 l -0.12,2.153 -0.2,9.058 c -0.08,1.52 -0.23,2.77 -0.54,3.75 -0.32,1.012 -0.86,1.801 -1.57,2.461 -0.7,0.629 -1.68,1.02 -2.89,1.211 -1.21,0.16 -2.69,0.309 -4.41,0.391 h -6.45 v -23.633 h -4.33 v 48.75 h 12.42 c 2.11,0 3.98,-0.16 5.59,-0.391 1.64,-0.277 2.96,-0.82 4.06,-1.636 1.09,-0.821 1.87,-1.992 2.42,-3.524 0.55,-1.519 0.86,-3.508 0.9,-6.008 z m -4.45,0.149 c 0,2.152 -0.32,3.793 -0.98,4.851 -0.63,1.09 -1.49,1.829 -2.54,2.219 -1.09,0.43 -2.38,0.629 -3.91,0.711 -1.56,0.039 -3.2,0.039 -5,0 h -4.18 v -17.859 h 5.51 c 1.8,0 3.4,0.121 4.73,0.277 1.37,0.192 2.54,0.621 3.51,1.293 0.98,0.66 1.68,1.68 2.11,3.039 0.39,1.328 0.63,3.168 0.75,5.469 z" /><path
         id="path52"
         style="fill:#ffffff;fill-opacity:1;fill-rule:nonzero;stroke:none"
         d="m 1057.93,220.039 h 4.3398 v 48.75 h -4.3398 z" /><path
         id="path54"
         style="fill:#ffffff;fill-opacity:1;fill-rule:nonzero;stroke:none"
         d="m 1096.95,220.039 -20,43.871 v -43.871 h -4.25 v 48.75 h 6.64 l 20.11,-43.867 v 43.867 h 4.26 v -48.75 z" /><path
         id="path56"
         style="fill:#ffffff;fill-opacity:1;fill-rule:nonzero;stroke:none"
         d="m 1137.19,256.289 v 0.742 c 0,2.891 -0.78,5.117 -2.31,6.68 -1.52,1.598 -3.71,2.379 -6.48,2.461 -1.99,0 -3.67,-0.313 -5.08,-0.902 -1.37,-0.579 -2.54,-1.559 -3.44,-2.969 -0.9,-1.403 -1.52,-3.121 -1.95,-5.192 -0.39,-2.07 -0.59,-4.687 -0.59,-7.808 v -6.762 c 0,-3.199 0.08,-6.059 0.32,-8.519 0.23,-2.461 0.78,-4.532 1.64,-6.211 0.86,-1.68 1.99,-2.93 3.43,-3.789 1.45,-0.86 3.44,-1.29 6.02,-1.29 3.05,0 5.74,0.551 8.09,1.571 v 17.687 h -9.93 v 3.524 h 14.18 V 221.25 c -1.91,-0.629 -3.94,-1.129 -6.13,-1.52 -2.23,-0.429 -4.3,-0.628 -6.29,-0.628 -3.75,0 -6.68,0.589 -8.79,1.757 -2.11,1.172 -3.71,2.77 -4.76,4.801 -1.1,2.039 -1.72,4.461 -1.92,7.27 -0.15,2.851 -0.31,5.859 -0.39,8.98 v 5.078 c 0,2.852 0.12,5.672 0.31,8.442 0.24,2.73 0.86,5.16 1.84,7.269 0.98,2.141 2.54,3.821 4.65,5.153 2.11,1.289 5.04,1.949 8.71,1.949 2.5,0 4.57,-0.313 6.21,-0.891 1.68,-0.59 3.05,-1.488 4.14,-2.699 1.06,-1.211 1.8,-2.621 2.23,-4.262 0.39,-1.597 0.62,-3.469 0.66,-5.66 z" /><path
         id="path58"
         style="fill:#ffffff;fill-opacity:1;fill-rule:nonzero;stroke:none"
         d="M 598.789,85.5117 V 184.34 L 566.719,85.5117 H 555.59 L 523.051,184.34 V 85.5117 H 513.91 V 193.789 h 15.738 l 31.801,-97.3398 31.211,97.3398 h 15.309 V 85.5117 Z" /><path
         id="path60"
         style="fill:#ffffff;fill-opacity:1;fill-rule:nonzero;stroke:none"
         d="M 631.051,85.5117 V 193.789 h 49.07 v -8.09 H 640.66 v -40.5 h 37.621 v -8.09 H 640.66 V 93.5898 h 40.469 v -8.0781 z" /><path
         id="path62"
         style="fill:#ffffff;fill-opacity:1;fill-rule:nonzero;stroke:none"
         d="m 755.23,115.941 c 0,-4.812 -0.539,-9.179 -1.64,-13.211 -1.09,-3.98 -2.93,-7.3784 -5.539,-10.1909 -2.582,-2.7696 -5.75,-5.0391 -9.461,-6.7578 -3.711,-1.6797 -8.199,-2.5 -13.469,-2.3829 -7.621,0 -13.48,1.4414 -17.582,4.3321 -4.098,2.9297 -7.07,6.7578 -8.988,11.5703 -1.91,4.8012 -3,10.0392 -3.321,15.7382 -0.269,5.699 -0.429,11.563 -0.429,17.582 0,6.481 0.039,12.258 0.16,17.379 0.078,5.121 0.348,9.77 0.738,13.949 1.492,21.281 11.762,31.949 30.75,31.949 8.781,0 15.66,-2.308 20.539,-6.918 4.922,-4.57 7.352,-12.031 7.352,-22.339 v -2.11 h -9.891 c 0,0.508 0,0.981 0,1.367 0,0.391 0.039,0.743 0.16,1.051 0,13.91 -6.058,20.86 -18.16,20.86 -5.32,0 -9.418,-1.25 -12.308,-3.75 -2.891,-2.5 -5.039,-5.618 -6.442,-9.289 -1.41,-3.719 -2.187,-7.821 -2.39,-12.309 -0.188,-4.492 -0.348,-8.711 -0.469,-12.621 v -29.531 c 0,-8.899 1.801,-15.899 5.39,-21.0082 3.641,-5.082 8.719,-7.6602 15.321,-7.6602 3.898,0 7.109,0.7383 9.609,2.2696 2.5,1.4804 4.488,3.4296 5.969,5.8593 1.531,2.3785 2.5,5.0315 3.012,7.9295 0.507,2.891 0.82,5.852 0.898,8.86 h 10.191 z" /><path
         id="path64"
         style="fill:#ffffff;fill-opacity:1;fill-rule:nonzero;stroke:none"
         d="M 824.41,85.5117 V 137.109 H 781.801 V 85.5117 h -9.61 V 193.789 h 9.61 v -48.59 h 42.609 v 48.59 h 9.57 V 85.5117 Z" /><path
         id="path66"
         style="fill:#ffffff;fill-opacity:1;fill-rule:nonzero;stroke:none"
         d="M 916.051,85.5117 907.34,113.98 h -42.461 l -8.508,-28.4683 h -9.609 L 880.941,193.789 H 892.34 L 926.09,85.5117 Z m -29.84,97.7693 -18.481,-61.172 h 37.071 z" /><path
         id="path68"
         style="fill:#ffffff;fill-opacity:1;fill-rule:nonzero;stroke:none"
         d="M 993.441,85.5117 949.059,183.012 V 85.5117 h -9.45 V 193.789 h 14.692 L 998.98,96.2891 v 97.4999 h 9.46 V 85.5117 Z" /><path
         id="path70"
         style="fill:#ffffff;fill-opacity:1;fill-rule:nonzero;stroke:none"
         d="m 1031.72,85.5117 h 9.5703 v 108.277 h -9.5703 z" /><path
         id="path72"
         style="fill:#ffffff;fill-opacity:1;fill-rule:nonzero;stroke:none"
         d="m 1121.99,115.941 c 0,-4.812 -0.54,-9.179 -1.64,-13.211 -1.09,-3.98 -2.97,-7.3784 -5.55,-10.1909 -2.61,-2.7696 -5.74,-5.0391 -9.45,-6.7578 -3.71,-1.6797 -8.2,-2.5 -13.51,-2.3829 -7.58,0 -13.44,1.4414 -17.54,4.3321 -4.1,2.9297 -7.11,6.7578 -8.99,11.5703 -1.91,4.8012 -3.01,10.0392 -3.32,15.7382 -0.27,5.699 -0.43,11.563 -0.43,17.582 0,6.481 0.04,12.258 0.16,17.379 0.08,5.121 0.31,9.77 0.74,13.949 1.49,21.281 11.76,31.949 30.74,31.949 8.79,0 15.67,-2.308 20.55,-6.918 4.88,-4.57 7.34,-12.031 7.34,-22.339 v -2.11 h -9.88 c 0,0.508 0,0.981 0,1.367 0,0.391 0.04,0.743 0.16,1.051 0,13.91 -6.06,20.86 -18.17,20.86 -5.31,0 -9.41,-1.25 -12.3,-3.75 -2.89,-2.5 -5.04,-5.618 -6.45,-9.289 -1.4,-3.719 -2.18,-7.821 -2.42,-12.309 -0.19,-4.492 -0.31,-8.711 -0.43,-12.621 v -29.531 c 0,-8.899 1.8,-15.899 5.39,-21.0082 3.6,-5.082 8.71,-7.6602 15.31,-7.6602 3.91,0 7.11,0.7383 9.61,2.2696 2.5,1.4804 4.5,3.4296 5.98,5.8593 1.52,2.3785 2.5,5.0315 3.01,7.9295 0.51,2.891 0.82,5.852 0.9,8.86 h 10.19 z" /><path
         id="path74"
         style="fill:#ffffff;fill-opacity:1;fill-rule:nonzero;stroke:none"
         d="m 1199.41,85.5117 -8.71,28.4683 h -42.46 l -8.55,-28.4683 h -9.57 l 34.18,108.2773 h 11.4 l 33.75,-108.2773 z m -29.88,97.7693 -18.44,-61.172 h 37.07 z" /><path
         id="path76"
         style="fill:#ffffff;fill-opacity:1;fill-rule:nonzero;stroke:none"
         d="M 1221.6,85.5117 V 193.789 h 9.61 V 93.5898 h 35.82 v -8.0781 z" /><path
         id="path78"
         style="fill:#ffffff;fill-opacity:1;fill-rule:nonzero;stroke:none"
         d="M 1314.45,85.5117 V 193.789 h 49.07 v -8.09 h -39.46 v -40.5 h 37.66 v -8.09 h -37.66 V 93.5898 h 40.47 v -8.0781 z" /><path
         id="path80"
         style="fill:#ffffff;fill-opacity:1;fill-rule:nonzero;stroke:none"
         d="m 1435.04,85.5117 -44.38,97.5003 V 85.5117 h -9.45 V 193.789 h 14.69 l 44.69,-97.4999 v 97.4999 h 9.45 V 85.5117 Z" /><path
         id="path82"
         style="fill:#ffffff;fill-opacity:1;fill-rule:nonzero;stroke:none"
         d="m 1524.45,166.051 v 1.648 c 0,6.403 -1.72,11.36 -5.11,14.84 -3.4,3.512 -8.21,5.313 -14.38,5.43 -4.41,0 -8.16,-0.668 -11.25,-1.949 -3.12,-1.329 -5.66,-3.52 -7.66,-6.61 -1.99,-3.121 -3.43,-6.949 -4.33,-11.558 -0.94,-4.614 -1.37,-10.391 -1.37,-17.383 v -15 c 0,-7.11 0.24,-13.438 0.74,-18.91 0.51,-5.508 1.72,-10.11 3.6,-13.829 1.91,-3.6714 4.45,-6.48 7.65,-8.3902 3.21,-1.8789 7.66,-2.8593 13.36,-2.8593 6.8,0 12.82,1.1797 18.01,3.4804 v 39.3011 h -22.07 v 7.769 h 31.52 V 88.1992 c -4.21,-1.3984 -8.75,-2.539 -13.67,-3.4297 -4.88,-0.8984 -9.53,-1.3711 -13.94,-1.3711 -8.28,0 -14.81,1.293 -19.5,3.9024 -4.68,2.5781 -8.24,6.1406 -10.66,10.668 -2.38,4.4922 -3.79,9.8832 -4.18,16.1722 -0.43,6.328 -0.7,12.968 -0.9,19.961 v 11.25 c 0,6.41 0.24,12.66 0.74,18.75 0.51,6.097 1.84,11.488 4.07,16.207 2.18,4.691 5.62,8.48 10.35,11.41 4.69,2.89 11.13,4.332 19.33,4.332 5.51,0 10.08,-0.66 13.79,-1.949 3.71,-1.293 6.76,-3.321 9.14,-6.012 2.43,-2.699 4.07,-5.82 4.97,-9.461 0.89,-3.59 1.4,-7.77 1.52,-12.578 z" /><path
         id="path84"
         style="fill:#ffffff;fill-opacity:1;fill-rule:nonzero;stroke:none"
         d="m 1556.72,85.5117 h 9.5703 v 108.277 h -9.5703 z" /><path
         id="path86"
         style="fill:#ffffff;fill-opacity:1;fill-rule:nonzero;stroke:none"
         d="m 1643.4,85.5117 -44.42,97.5003 V 85.5117 h -9.45 V 193.789 h 14.73 l 44.69,-97.4999 v 97.4999 h 9.45 V 85.5117 Z" /><path
         id="path88"
         style="fill:#ffffff;fill-opacity:1;fill-rule:nonzero;stroke:none"
         d="M 1681.05,85.5117 V 193.789 h 49.07 v -8.09 h -39.46 v -40.5 h 37.62 v -8.09 h -37.62 V 93.5898 h 40.47 v -8.0781 z" /><path
         id="path90"
         style="fill:#ffffff;fill-opacity:1;fill-rule:nonzero;stroke:none"
         d="M 1747.66,85.5117 V 193.789 h 49.06 v -8.09 h -39.45 v -40.5 h 37.61 v -8.09 h -37.61 V 93.5898 h 40.46 v -8.0781 z" /><path
         id="path92"
         style="fill:#ffffff;fill-opacity:1;fill-rule:nonzero;stroke:none"
         d="m 1869.61,168.16 c 0,-4.101 -0.31,-7.648 -0.9,-10.66 -0.62,-3.012 -1.56,-5.512 -2.85,-7.5 -1.33,-1.988 -3.13,-3.711 -5.39,-5.121 -2.31,-1.359 -5,-2.379 -8.13,-2.969 5.51,-0.699 9.42,-2.461 11.72,-5.269 2.31,-2.77 3.56,-7.301 3.75,-13.481 l 0.59,-24.9217 1.05,-12.7266 h -9.76 c -0.2,1.3985 -0.35,3.0781 -0.43,5.0781 -0.12,2.0313 -0.28,3.711 -0.47,5.1094 l -0.27,4.8128 -0.47,20.078 c -0.08,3.39 -0.51,6.211 -1.21,8.39 -0.71,2.231 -1.84,4.032 -3.44,5.43 -1.6,1.371 -3.75,2.309 -6.45,2.699 -2.69,0.391 -5.93,0.7 -9.76,0.903 h -14.38 V 85.5117 h -9.61 V 193.789 h 27.58 c 4.73,0 8.87,-0.269 12.46,-0.898 3.6,-0.59 6.6,-1.801 9.03,-3.59 2.38,-1.801 4.18,-4.422 5.39,-7.821 1.21,-3.39 1.83,-7.851 1.95,-13.32 z m -9.92,0.281 c 0,4.797 -0.71,8.399 -2.07,10.821 -1.41,2.379 -3.32,4.019 -5.71,4.957 -2.42,0.902 -5.31,1.371 -8.71,1.48 -3.4,0.082 -7.11,0.082 -11.09,0 h -9.3 V 146.09 h 12.31 c 3.98,0 7.5,0.199 10.47,0.629 3,0.39 5.62,1.332 7.81,2.812 2.19,1.52 3.75,3.75 4.65,6.758 0.9,3.012 1.44,7.07 1.64,12.152 z" /><path
         id="path94"
         style="fill:#ffffff;fill-opacity:1;fill-rule:nonzero;stroke:none"
         d="m 1889.84,85.5117 h 9.6094 v 108.277 h -9.6094 z" /><path
         id="path96"
         style="fill:#ffffff;fill-opacity:1;fill-rule:nonzero;stroke:none"
         d="m 1976.56,85.5117 -44.41,97.5003 V 85.5117 h -9.45 V 193.789 h 14.68 l 44.73,-97.4999 v 97.4999 h 9.45 V 85.5117 Z" /><path
         id="path98"
         style="fill:#ffffff;fill-opacity:1;fill-rule:nonzero;stroke:none"
         d="m 2065.94,166.051 v 1.648 c 0,6.403 -1.68,11.36 -5.08,14.84 -3.4,3.512 -8.2,5.313 -14.41,5.43 -4.42,0 -8.17,-0.668 -11.25,-1.949 -3.09,-1.329 -5.67,-3.52 -7.66,-6.61 -1.99,-3.121 -3.44,-6.949 -4.34,-11.558 -0.9,-4.614 -1.36,-10.391 -1.36,-17.383 v -15 c 0,-7.11 0.27,-13.438 0.78,-18.91 0.47,-5.508 1.68,-10.11 3.59,-13.829 1.88,-3.6714 4.45,-6.48 7.66,-8.3902 3.16,-1.8789 7.61,-2.8593 13.32,-2.8593 6.79,0 12.81,1.1797 18.01,3.4804 v 39.3011 h -22.04 v 7.769 h 31.49 V 88.1992 c -4.18,-1.3984 -8.75,-2.539 -13.63,-3.4297 -4.93,-0.8984 -9.57,-1.3711 -13.99,-1.3711 -8.28,0 -14.76,1.293 -19.49,3.9024 -4.69,2.5781 -8.24,6.1406 -10.63,10.668 -2.42,4.4922 -3.82,9.8832 -4.21,16.1722 -0.4,6.328 -0.71,12.968 -0.9,19.961 v 11.25 c 0,6.41 0.23,12.66 0.74,18.75 0.51,6.097 1.87,11.488 4.06,16.207 2.19,4.691 5.67,8.48 10.35,11.41 4.69,2.89 11.14,4.332 19.34,4.332 5.51,0 10.12,-0.66 13.83,-1.949 3.67,-1.293 6.72,-3.321 9.14,-6.012 2.38,-2.699 4.02,-5.82 4.96,-9.461 0.9,-3.59 1.37,-7.77 1.48,-12.578 z" /></g></g></svg>